<svg width="270" height="60" viewBox="0 0 270 60" fill="none" xmlns="http://www.w3.org/2000/svg">
<rect width="270" height="52" transform="translate(0 4)" fill="#353535"/>
<path d="M0.1 9V30H4.6V16.38L8.89 23.94L13.18 16.38V30H17.68V9H13.18L8.89 16.68L4.6 9H0.1ZM21.8676 9V22.11H31.3176V25.5H21.8676V30H35.8176V9H31.3176V17.61H26.3676V9H21.8676ZM38.8199 9V13.5H46.8899L41.8499 19.5L46.8899 25.5H38.8199V30H52.3199V25.5L47.2799 19.5L52.3199 13.5V9H38.8199ZM56.057 9V30H69.857V25.5H60.557V21.75H65.297V17.25H60.557V13.5H69.857V9H56.057ZM84.0459 9L78.1059 21.54V9H73.6059V30H78.1059L84.0459 17.46V30H88.5459V9H84.0459ZM77.3259 3.42V7.17H84.8259V3.42H77.3259Z" fill="#F3F4EF"/>
<path d="M4.6 47.66H6.67L10.69 56H15.64L10.27 45.14L15.34 35H10.6L6.67 43.16H4.6V35H0.1V56H4.6V47.66ZM18.352 35V56H32.452V35H18.352ZM22.852 39.5H27.952V51.5H22.852V39.5ZM36.6625 35V56H41.1625V47.66H46.2625V56H50.7625V35H46.2625V43.16H41.1625V35H36.6625ZM54.973 35V56H69.073V49.46H64.573V51.5H59.473V39.5H64.573V41.54H69.073V35H54.973ZM71.4133 35V39.5H76.2133V56H80.7133V39.5H85.5133V35H71.4133ZM88.6645 35V56H93.1645V49.7H102.764V35H88.6645ZM93.1645 39.5H98.2645V45.2H93.1645V39.5ZM106.829 35V48.11H116.279V51.5H106.829V56H120.779V35H116.279V43.61H111.329V35H106.829ZM129.493 47.66H131.563L135.583 56H140.533L135.163 45.14L140.233 35H135.493L131.563 43.16H129.493V35H124.993V56H129.493V47.66ZM141.755 35V39.5H146.555V56H151.055V39.5H155.855V35H141.755ZM169.446 35L163.506 47.54V35H159.006V56H163.506L169.446 43.46V56H173.946V35H169.446ZM178.137 35V56H192.237V47.6L189.627 45.5L192.237 43.4V35H178.137ZM187.737 39.5V41.87L186.117 43.4H182.637V39.5H187.737ZM182.637 47.6H186.117L187.737 49.13V51.5H182.637V47.6ZM206.888 35L200.948 47.54V35H196.448V56H200.948L206.888 43.46V56H211.388V35H206.888ZM215.129 35V39.5H223.199L218.159 45.5L223.199 51.5H215.129V56H228.629V51.5L223.589 45.5L228.629 39.5V35H215.129ZM232.366 35V56H236.866V42.38L241.156 49.94L245.446 42.38V56H249.946V35H245.446L241.156 42.68L236.866 35H232.366ZM255.123 35L253.083 56H257.583L258.033 51.05H262.983L263.433 56H267.933L265.893 35H255.123ZM258.423 46.55L259.083 39.5H261.933L262.593 46.55H258.423Z" fill="#F3F4EF"/>
<rect x="107" y="18" width="162" height="12" fill="#F3F4EF"/>
<rect x="107" y="14" width="162" height="2" fill="#F3F4EF"/>
<rect x="107" y="10" width="162" height="2" fill="#F3F4EF"/>
<rect x="107" y="6" width="162" height="2" fill="#F3F4EF"/>
</svg>
