<svg width="270" height="53" viewBox="0 0 270 53" fill="none" xmlns="http://www.w3.org/2000/svg">
<path d="M0.1 6V27H4.6V13.38L8.89 20.94L13.18 13.38V27H17.68V6H13.18L8.89 13.68L4.6 6H0.1ZM21.8676 6V19.11H31.3176V22.5H21.8676V27H35.8176V6H31.3176V14.61H26.3676V6H21.8676ZM38.8199 6V10.5H46.8899L41.8499 16.5L46.8899 22.5H38.8199V27H52.3199V22.5L47.2799 16.5L52.3199 10.5V6H38.8199ZM56.057 6V27H69.857V22.5H60.557V18.75H65.297V14.25H60.557V10.5H69.857V6H56.057ZM84.0459 6L78.1059 18.54V6H73.6059V27H78.1059L84.0459 14.46V27H88.5459V6H84.0459ZM77.3259 0.419999V4.17H84.8259V0.419999H77.3259Z" fill="#E2524A"/>
<path d="M4.6 44.66H6.67L10.69 53H15.64L10.27 42.14L15.34 32H10.6L6.67 40.16H4.6V32H0.1V53H4.6V44.66ZM18.352 32V53H32.452V32H18.352ZM22.852 36.5H27.952V48.5H22.852V36.5ZM36.6625 32V53H41.1625V44.66H46.2625V53H50.7625V32H46.2625V40.16H41.1625V32H36.6625ZM54.973 32V53H69.073V46.46H64.573V48.5H59.473V36.5H64.573V38.54H69.073V32H54.973ZM71.4133 32V36.5H76.2133V53H80.7133V36.5H85.5133V32H71.4133ZM88.6645 32V53H93.1645V46.7H102.764V32H88.6645ZM93.1645 36.5H98.2645V42.2H93.1645V36.5ZM106.829 32V45.11H116.279V48.5H106.829V53H120.779V32H116.279V40.61H111.329V32H106.829ZM129.493 44.66H131.563L135.583 53H140.533L135.163 42.14L140.233 32H135.493L131.563 40.16H129.493V32H124.993V53H129.493V44.66ZM141.755 32V36.5H146.555V53H151.055V36.5H155.855V32H141.755ZM169.446 32L163.506 44.54V32H159.006V53H163.506L169.446 40.46V53H173.946V32H169.446ZM178.137 32V53H192.237V44.6L189.627 42.5L192.237 40.4V32H178.137ZM187.737 36.5V38.87L186.117 40.4H182.637V36.5H187.737ZM182.637 44.6H186.117L187.737 46.13V48.5H182.637V44.6ZM206.888 32L200.948 44.54V32H196.448V53H200.948L206.888 40.46V53H211.388V32H206.888ZM215.129 32V36.5H223.199L218.159 42.5L223.199 48.5H215.129V53H228.629V48.5L223.589 42.5L228.629 36.5V32H215.129ZM232.366 32V53H236.866V39.38L241.156 46.94L245.446 39.38V53H249.946V32H245.446L241.156 39.68L236.866 32H232.366ZM255.123 32L253.083 53H257.583L258.033 48.05H262.983L263.433 53H267.933L265.893 32H255.123ZM258.423 43.55L259.083 36.5H261.933L262.593 43.55H258.423Z" fill="#353535"/>
<rect x="107" y="15" width="162" height="12" fill="#353535"/>
<rect x="107" y="11" width="162" height="2" fill="#353535"/>
<rect x="107" y="7" width="162" height="2" fill="#353535"/>
<rect x="107" y="3" width="162" height="2" fill="#353535"/>
</svg>
